<?xml version="1.0" standalone="no"?><!DOCTYPE svg PUBLIC "-//W3C//DTD SVG 1.1//EN" "http://www.w3.org/Graphics/SVG/1.1/DTD/svg11.dtd"><svg t="1548063176045" class="icon" style="" viewBox="0 0 1024 1024" version="1.1" xmlns="http://www.w3.org/2000/svg" p-id="1161" xmlns:xlink="http://www.w3.org/1999/xlink" width="200" height="200"><defs><style type="text/css"></style></defs><path d="M768.903317 735.661256h-52.753705c-10.117149 0-18.066337-7.949188-18.066337-18.066337s7.949188-18.066337 18.066337-18.066337h52.753705c5.058574 0 9.394495-4.335921 9.394495-9.394496V575.954834c0-10.117149 7.949188-18.066337 18.066338-18.066337s18.066337 7.949188 18.066337 18.066337v114.179252c-0.722653 25.292872-20.956951 45.52717-45.52717 45.52717z" fill="#99FFFF" p-id="1162"></path><path d="M521.033169 527.53705c-1.445307 0-3.613267-0.722653-5.058575-1.445307L204.510939 355.545519c-5.058574-2.890614-7.226535-9.394495-4.335921-14.45307s9.394495-7.226535 14.45307-4.335921l306.405081 167.65561 294.842625-167.65561c5.058574-2.890614 11.562456-1.445307 14.45307 4.335921 2.890614 5.058574 1.445307 11.562456-4.335921 14.45307L526.091743 526.091743c-1.445307 0.722653-2.890614 1.445307-5.058574 1.445307z" fill="#0077F9" p-id="1163"></path><path d="M770.348624 787.692308h-498.630911c-53.476359 0-97.558222-44.081863-97.558221-97.558222V406.131263c0-53.476359 44.081863-97.558222 97.558221-97.558221h498.630911c53.476359 0 97.558222 44.081863 97.558221 97.558221v284.002823c0 54.199012-44.081863 97.558222-97.558221 97.558222z m-498.630911-456.717008c-41.913903 0-75.878617 33.964714-75.878616 75.878617v284.002823c0 41.913903 33.964714 75.878617 75.878616 75.878616h498.630911c41.913903 0 75.878617-33.964714 75.878617-75.878616V406.853917c0-41.913903-33.964714-75.878617-75.878617-75.878617h-498.630911z" fill="#0077F9" p-id="1164"></path></svg>